<svg width="111" height="124" viewBox="0 0 111 124" fill="none" xmlns="http://www.w3.org/2000/svg">
<g filter="url(#filter0_d_1274_19455)">
<path d="M31 56C31 42.7452 41.7452 32 55 32C68.2548 32 79 42.7452 79 56C79 69.2548 68.2548 80 55 80C41.7452 80 31 69.2548 31 56Z" fill="#F87F07"/>
<path d="M47 56C47 51.5817 50.5817 48 55 48C59.4183 48 63 51.5817 63 56C63 60.4183 59.4183 64 55 64C50.5817 64 47 60.4183 47 56Z" fill="white"/>
<path d="M55 80V104" stroke="#F87F07" stroke-width="4"/>
</g>
<defs>
<filter id="filter0_d_1274_19455" x="-1" y="0" width="112" height="136" filterUnits="userSpaceOnUse" color-interpolation-filters="sRGB">
<feFlood flood-opacity="0" result="BackgroundImageFix"/>
<feColorMatrix in="SourceAlpha" type="matrix" values="0 0 0 0 0 0 0 0 0 0 0 0 0 0 0 0 0 0 127 0" result="hardAlpha"/>
<feOffset/>
<feGaussianBlur stdDeviation="16"/>
<feComposite in2="hardAlpha" operator="out"/>
<feColorMatrix type="matrix" values="0 0 0 0 0.0196078 0 0 0 0 0.00784314 0 0 0 0 0 0 0 0 0.1 0"/>
<feBlend mode="normal" in2="BackgroundImageFix" result="effect1_dropShadow_1274_19455"/>
<feBlend mode="normal" in="SourceGraphic" in2="effect1_dropShadow_1274_19455" result="shape"/>
</filter>
</defs>
</svg>
