<svg width="112" height="124" viewBox="0 0 112 124" fill="none" xmlns="http://www.w3.org/2000/svg">
<g filter="url(#filter0_d_1274_19453)">
<path d="M32 56C32 42.7452 42.7452 32 56 32C69.2548 32 80 42.7452 80 56C80 69.2548 69.2548 80 56 80C42.7452 80 32 69.2548 32 56Z" fill="#F87F07"/>
<rect x="46" y="46.5" width="2" height="19" fill="#C3C3C3"/>
<g clip-path="url(#clip0_1274_19453)">
<path d="M48 46.5H64C65.1046 46.5 66 47.3954 66 48.5V56.5C66 57.6046 65.1046 58.5 64 58.5H48V46.5Z" fill="white"/>
<rect x="48" y="46.5" width="3" height="3" fill="#050200"/>
<rect x="54" y="46.5" width="3" height="3" fill="#050200"/>
<rect x="51" y="49.5" width="3" height="3" fill="#050200"/>
<rect x="57" y="49.5" width="3" height="3" fill="#050200"/>
<rect x="63" y="49.5" width="3" height="3" fill="#050200"/>
<rect x="60" y="52.5" width="3" height="3" fill="#050200"/>
<rect x="57" y="55.5" width="3" height="3" fill="#050200"/>
<rect x="63" y="55.5" width="3" height="3" fill="#050200"/>
<rect x="54" y="52.5" width="3" height="3" fill="#050200"/>
<rect x="48" y="52.5" width="3" height="3" fill="#050200"/>
<rect x="51" y="55.5" width="3" height="3" fill="#050200"/>
<rect x="60" y="46.5" width="3" height="3" fill="#050200"/>
</g>
<path d="M56 80V104" stroke="#F87F07" stroke-width="4"/>
</g>
<defs>
<filter id="filter0_d_1274_19453" x="0" y="0" width="112" height="136" filterUnits="userSpaceOnUse" color-interpolation-filters="sRGB">
<feFlood flood-opacity="0" result="BackgroundImageFix"/>
<feColorMatrix in="SourceAlpha" type="matrix" values="0 0 0 0 0 0 0 0 0 0 0 0 0 0 0 0 0 0 127 0" result="hardAlpha"/>
<feOffset/>
<feGaussianBlur stdDeviation="16"/>
<feComposite in2="hardAlpha" operator="out"/>
<feColorMatrix type="matrix" values="0 0 0 0 0.0196078 0 0 0 0 0.00784314 0 0 0 0 0 0 0 0 0.1 0"/>
<feBlend mode="normal" in2="BackgroundImageFix" result="effect1_dropShadow_1274_19453"/>
<feBlend mode="normal" in="SourceGraphic" in2="effect1_dropShadow_1274_19453" result="shape"/>
</filter>
<clipPath id="clip0_1274_19453">
<path d="M48 46.5H64C65.1046 46.5 66 47.3954 66 48.5V56.5C66 57.6046 65.1046 58.5 64 58.5H48V46.5Z" fill="white"/>
</clipPath>
</defs>
</svg>
