<svg width="111" height="124" viewBox="0 0 111 124" fill="none" xmlns="http://www.w3.org/2000/svg">
<g filter="url(#filter0_d_1274_19454)">
<path d="M32 56C32 42.7452 42.7452 32 56 32C69.2548 32 80 42.7452 80 56C80 69.2548 69.2548 80 56 80C42.7452 80 32 69.2548 32 56Z" fill="#F87F07"/>
<path d="M51.3789 62.5V61.0762L55.8086 56.4707C56.2773 55.9785 56.6641 55.5449 56.9688 55.1699C57.2793 54.7891 57.5107 54.4287 57.6631 54.0889C57.8213 53.749 57.9004 53.3887 57.9004 53.0078C57.9004 52.5684 57.7979 52.1904 57.5928 51.874C57.3877 51.5576 57.1094 51.3145 56.7578 51.1445C56.4062 50.9746 56.0078 50.8896 55.5625 50.8896C55.0938 50.8896 54.6865 50.9863 54.3408 51.1797C53.9951 51.3672 53.7256 51.6367 53.5322 51.9883C53.3447 52.334 53.251 52.7412 53.251 53.21H51.3701C51.3701 52.4131 51.5518 51.7158 51.915 51.1182C52.2842 50.5205 52.7881 50.0576 53.4268 49.7295C54.0713 49.3955 54.7979 49.2285 55.6064 49.2285C56.4326 49.2285 57.1592 49.3926 57.7861 49.7207C58.4131 50.0488 58.9023 50.4941 59.2539 51.0566C59.6055 51.6133 59.7812 52.2432 59.7812 52.9463C59.7812 53.4326 59.6904 53.9072 59.5088 54.3701C59.333 54.833 59.0195 55.3516 58.5684 55.9258C58.123 56.4941 57.502 57.1797 56.7051 57.9824L54.1035 60.707V60.8125H59.9922V62.5H51.3789Z" fill="white"/>
<path d="M56 80V104" stroke="#F87F07" stroke-width="4"/>
</g>
<defs>
<filter id="filter0_d_1274_19454" x="0" y="0" width="112" height="136" filterUnits="userSpaceOnUse" color-interpolation-filters="sRGB">
<feFlood flood-opacity="0" result="BackgroundImageFix"/>
<feColorMatrix in="SourceAlpha" type="matrix" values="0 0 0 0 0 0 0 0 0 0 0 0 0 0 0 0 0 0 127 0" result="hardAlpha"/>
<feOffset/>
<feGaussianBlur stdDeviation="16"/>
<feComposite in2="hardAlpha" operator="out"/>
<feColorMatrix type="matrix" values="0 0 0 0 0.0196078 0 0 0 0 0.00784314 0 0 0 0 0 0 0 0 0.1 0"/>
<feBlend mode="normal" in2="BackgroundImageFix" result="effect1_dropShadow_1274_19454"/>
<feBlend mode="normal" in="SourceGraphic" in2="effect1_dropShadow_1274_19454" result="shape"/>
</filter>
</defs>
</svg>
