<svg width="154" height="154" viewBox="0 0 154 154" fill="none" xmlns="http://www.w3.org/2000/svg">
<path d="M24.9741 115.152C31.644 116.443 36.8491 121.648 38.1402 128.318L41.3271 144.778C37.1468 142.62 33.1255 140.051 29.3222 137.07L27.1977 126.094L16.2174 123.968C13.2351 120.164 10.6642 116.143 8.50477 111.963L24.9741 115.152Z" fill="#F87F07"/>
<path d="M40.9077 99.2181C47.5775 100.509 52.7826 105.714 54.0737 112.384L61.7157 151.857C57.9582 151.125 54.2463 150.11 50.6136 148.813L43.1312 110.161L4.46771 102.675C3.16936 99.0425 2.1539 95.3308 1.42156 91.5735L40.9077 99.2181Z" fill="#F87F07"/>
<path d="M56.8674 83.2583C63.5373 84.5495 68.7423 89.7546 70.0335 96.4244L81.0131 153.141C77.5045 153.349 73.9856 153.316 70.4825 153.045L59.091 94.2009L0.231379 82.806C-0.040515 79.3027 -0.0727212 75.7836 0.134441 72.2747L56.8674 83.2583Z" fill="#F87F07"/>
<path d="M126.935 134.428C124.274 136.738 121.492 138.835 118.613 140.721L92.0102 114.097L98.9466 149.926C95.6391 150.934 92.2781 151.714 88.888 152.267L80.6711 109.822C79.1035 101.723 88.9855 96.4461 94.8079 102.273L126.935 134.428Z" fill="#F87F07"/>
<path d="M50.996 58.4611C56.8232 64.2835 51.5461 74.1657 43.4469 72.5979L1.00823 64.3824C1.56148 60.9922 2.34269 57.6313 3.3509 54.3237L39.1722 61.2588L12.554 34.6621C14.4396 31.7827 16.5373 29.0011 18.8475 26.3396L50.996 58.4611Z" fill="#F87F07"/>
<path d="M71.9305 47.4855C72.2613 55.734 61.704 59.4687 56.8284 52.8279L29.7658 15.9665C32.5148 13.819 35.3757 11.8848 38.3253 10.1617L61.3703 41.5514L59.7702 1.65131C63.1555 0.869191 66.5826 0.319119 70.0261 0L71.9305 47.4855Z" fill="#F87F07"/>
<path d="M153.275 83.253C152.956 86.6967 152.405 90.124 151.623 93.5096L111.729 91.9101L143.114 114.952C141.391 117.901 139.455 120.761 137.308 123.51L100.453 96.452C93.8117 91.5764 97.5464 81.0191 105.795 81.3499L153.275 83.253Z" fill="#F87F07"/>
<path d="M95.0954 52.2523C89.9014 58.6946 79.5358 54.5482 80.2672 46.3209L84.3857 0.00740499C87.8131 0.329598 91.2217 0.882833 94.5871 1.66478L91.1061 40.8082L115.84 10.1287C118.781 11.8531 121.631 13.7918 124.367 15.9429L95.0954 52.2523Z" fill="#F87F07"/>
<path d="M137.362 28.9448C139.512 31.683 141.448 34.5345 143.171 37.4773L112.502 62.2039L151.619 58.7236C152.399 62.0893 152.951 65.4982 153.272 68.9257L106.989 73.0428C98.7618 73.7743 94.6154 63.4086 101.058 58.2147L137.362 28.9448Z" fill="#F87F07"/>
</svg>
