<svg width="20" height="20" viewBox="0 0 20 20" fill="none" xmlns="http://www.w3.org/2000/svg">
<path d="M11.3602 13.0088C9.03087 12.0225 7.1786 10.166 6.19776 7.8344L8.91776 5.1096L3.90976 0.0976L1.37296 2.6336C0.932957 3.07612 0.585074 3.60149 0.349436 4.17932C0.113797 4.75716 -0.00491857 5.37599 0.000156081 6C0.000156081 11.7984 7.40176 19.2 13.2002 19.2C13.8241 19.2055 14.4429 19.0869 15.0207 18.8512C15.5984 18.6156 16.1236 18.2675 16.5658 17.8272L19.1026 15.2904L14.0906 10.2784L11.3602 13.0088ZM15.4338 16.696C15.14 16.9872 14.7912 17.2171 14.4077 17.3723C14.0243 17.5275 13.6138 17.6049 13.2002 17.6C8.21376 17.6 1.60016 10.9864 1.60016 6C1.59544 5.58627 1.67293 5.17571 1.82811 4.79215C1.98329 4.40859 2.21308 4.05966 2.50416 3.7656L3.90976 2.36L6.65936 5.1096L4.31136 7.4576L4.50736 7.9488C5.08435 9.49225 5.98637 10.8936 7.15228 12.058C8.31819 13.2224 9.72076 14.1226 11.265 14.6976L11.7498 14.8824L14.0906 12.5408L16.8402 15.2904L15.4338 16.696ZM11.2002 1.6V0C13.3212 0.00232928 15.3547 0.845932 16.8544 2.34572C18.3542 3.8455 19.1978 5.87898 19.2002 8H17.6002C17.5983 6.3032 16.9234 4.67644 15.7235 3.47662C14.5237 2.2768 12.897 1.60191 11.2002 1.6ZM11.2002 4.8V3.2C12.4728 3.20127 13.693 3.70739 14.5929 4.60729C15.4928 5.50719 15.9989 6.72735 16.0002 8H14.4002C14.4002 7.15131 14.063 6.33737 13.4629 5.73726C12.8628 5.13714 12.0488 4.8 11.2002 4.8Z" fill="#050200"/>
</svg>
