<svg width="20" height="18" viewBox="0 0 20 18" fill="none" xmlns="http://www.w3.org/2000/svg">
<path d="M3.9536 15.2C4.4232 18.3632 -0.424 18.3616 0.0464 15.2H3.9536ZM17.92 4.8408C17.7609 4.36363 17.4559 3.94852 17.048 3.6541C16.6402 3.35967 16.1502 3.20083 15.6472 3.2H12.8V8H18.9768L17.92 4.8408ZM5.6464 15.2C5.1768 18.3632 10.024 18.3616 9.5536 15.2H5.6464ZM8.8 0H2.4C1.76348 0 1.15303 0.252856 0.702944 0.702944C0.252856 1.15303 0 1.76348 0 2.4V13.6H11.2V2.4C11.2 1.76348 10.9471 1.15303 10.4971 0.702944C10.047 0.252856 9.43652 0 8.8 0ZM19.2 9.6H12.8V13.6H19.2V9.6ZM13.6464 15.2C13.1768 18.3632 18.024 18.3616 17.5536 15.2H13.6464Z" fill="white"/>
</svg>
