<svg width="20" height="20" viewBox="0 0 20 20" fill="none" xmlns="http://www.w3.org/2000/svg">
<path d="M9.6 0C7.7013 0 5.84524 0.56303 4.26653 1.61789C2.68782 2.67275 1.45736 4.17207 0.730761 5.92624C0.00415957 7.68041 -0.185953 9.61065 0.184466 11.4729C0.554884 13.3351 1.4692 15.0456 2.81178 16.3882C4.15436 17.7308 5.86492 18.6451 7.72714 19.0155C9.58936 19.386 11.5196 19.1958 13.2738 18.4692C15.0279 17.7426 16.5273 16.5122 17.5821 14.9335C18.637 13.3548 19.2 11.4987 19.2 9.6C19.1973 7.05477 18.1849 4.61457 16.3852 2.81482C14.5854 1.01506 12.1452 0.00275287 9.6 0ZM13.6 10.4H10.4V13.6H8.80001V10.4H5.6V8.8H8.80001V5.6H10.4V8.8H13.6V10.4Z" fill="#050200"/>
</svg>
