<svg width="20" height="20" viewBox="0 0 20 20" fill="none" xmlns="http://www.w3.org/2000/svg">
<path fill-rule="evenodd" clip-rule="evenodd" d="M17.6 9.6C17.6 5.1888 14.0112 1.6 9.6 1.6C5.1888 1.6 1.6 5.1888 1.6 9.6C1.6 14.0112 5.1888 17.6 9.6 17.6C14.0112 17.6 17.6 14.0112 17.6 9.6ZM14.1616 7.7704L13.0384 6.6304L8.392 11.1912L6.1576 9.0256L5.0432 10.1752L7.2688 12.332C7.5816 12.644 7.9928 12.8 8.4016 12.8C8.8104 12.8 9.2176 12.6456 9.5272 12.336L14.1616 7.7704Z" fill="white"/>
<path fill-rule="evenodd" clip-rule="evenodd" d="M9.6 19.2C14.8936 19.2 19.2 14.8936 19.2 9.6C19.2 4.3064 14.8936 0 9.6 0C4.3064 0 0 4.3064 0 9.6C0 14.8936 4.3064 19.2 9.6 19.2ZM9.6 1.6C14.0112 1.6 17.6 5.1888 17.6 9.6C17.6 14.0112 14.0112 17.6 9.6 17.6C5.1888 17.6 1.6 14.0112 1.6 9.6C1.6 5.1888 5.1888 1.6 9.6 1.6Z" fill="white"/>
</svg>
