<svg width="17" height="20" viewBox="0 0 17 20" fill="none" xmlns="http://www.w3.org/2000/svg">
<path d="M11.1987 14.888C11.1987 13.8616 10.5523 13.2648 9.31313 12.2128C9.03313 11.9728 8.73073 11.7184 8.41873 11.4352C8.06273 11.7624 7.72433 12.0504 7.41393 12.3152C6.17713 13.36 5.63553 13.8712 5.63553 14.888C5.63553 15.6257 5.92859 16.3332 6.45024 16.8549C6.9719 17.3765 7.67941 17.6696 8.41713 17.6696C9.15486 17.6696 9.86237 17.3765 10.384 16.8549C10.9057 16.3332 11.1987 15.6257 11.1987 14.888Z" fill="#F87F07"/>
<path d="M11.9435 3.228C10.9835 2.4128 9.99153 1.5704 8.98833 0.568L8.41713 0L7.85713 0.5688C6.05393 2.3784 5.20113 5.1576 4.83153 6.8248C4.54792 6.38565 4.33745 5.90338 4.20833 5.3968L3.86673 4.0872L2.88033 5.0128C1.15313 6.6352 0.00033296 8.244 0.00033296 10.82C-0.0162741 12.6788 0.58878 14.4899 1.71936 15.9654C2.84995 17.441 4.44121 18.4964 6.24033 18.964C6.69239 19.0785 7.15274 19.1574 7.61713 19.2C6.61015 19.0123 5.70041 18.4787 5.04523 17.6913C4.39006 16.9039 4.03064 15.9123 4.02913 14.888C4.02913 13.088 5.11473 12.168 6.37153 11.0944C6.82033 10.7128 7.33153 10.28 7.84753 9.7608L8.41713 9.1944L8.98353 9.7608C9.44433 10.2216 9.90513 10.612 10.3507 10.9912C11.6115 12.0608 12.8019 13.0712 12.8019 14.888C12.8006 15.9083 12.4441 16.8963 11.7936 17.6823C11.1431 18.4682 10.2392 19.0032 9.23713 19.1952C11.3176 18.9933 13.2482 18.0238 14.6526 16.4757C16.057 14.9275 16.8344 12.9118 16.8331 10.8216C16.8331 7.38 14.5667 5.456 11.9435 3.228Z" fill="#F87F07"/>
</svg>
