<svg width="20" height="17" viewBox="0 0 20 17" fill="none" xmlns="http://www.w3.org/2000/svg">
<path d="M19.5 13.1939H2.43933L4.5516 15.337L3.40041 16.5L0.475727 13.5327C0.171119 13.2235 0 12.8043 0 12.3672C0 11.93 0.171119 11.5108 0.475727 11.2017L3.37523 8.25989L4.52398 9.42539L2.43933 11.5454H19.5V13.1939ZM14.9716 7.07214L16.1204 8.23764L19.0239 5.29256C19.3285 4.98342 19.4997 4.56419 19.4997 4.12706C19.4997 3.68993 19.3285 3.2707 19.0239 2.96156L16.1049 0L14.9562 1.1655L17.0628 3.3028H0.00209026V4.95132H17.0628L14.9716 7.07214Z" fill="#F87F07"/>
</svg>
