<svg width="142" height="28" viewBox="0 0 142 28" fill="none" xmlns="http://www.w3.org/2000/svg">
<path d="M64.397 24.4942H69.509V14.0701C69.509 8.55425 65.959 5.63272 61.6753 5.63272C58.8353 5.63272 56.7053 6.84808 55.167 8.53089H54.4807C53.321 7.03506 51.3093 5.63272 48.3037 5.63272C45.582 5.63272 43.4283 6.82471 42.2923 8.1803H41.606V6.14691H36.849V24.4708H41.9137V14.8881C41.9137 11.616 42.884 10.4942 46.292 10.4942C49.7 10.4942 50.623 11.616 50.623 14.8881V24.4708H55.735V14.8881C55.735 11.616 56.6817 10.4942 60.066 10.4942C63.474 10.4942 64.397 11.616 64.397 14.8881V24.4942ZM16.5193 21.8765C15.62 21.222 15.194 20.2638 15.194 18.7913C15.194 16.9449 15.762 14.7012 16.7087 13.7195C17.3713 13.0651 18.318 12.7613 19.596 12.7613C21.4183 12.7613 23.6667 13.2287 24.5897 14.187C25.2287 14.818 25.5127 15.6828 25.5127 16.8982C25.5127 18.6511 25.0157 21.1052 23.9033 22.1336C23.2643 22.6945 22.436 22.9516 21.229 22.9516C19.596 22.9282 17.537 22.5543 16.5193 21.8765ZM24.5423 25.7329L24.3293 27.4157L29.0863 28L31.3347 9.83974L26.5777 9.25543L26.3647 11.0083H25.7967C25.0867 9.76962 23.1933 8.08681 19.596 8.08681C14.6023 8.08681 10.9103 11.7329 10.2477 16.7112C10.1767 17.202 10.153 17.6928 10.153 18.1836C10.153 22.9516 13.419 26.8548 18.531 27.4157C18.815 27.4391 19.099 27.4624 19.383 27.4391C21.513 27.4391 23.1223 26.5276 23.9507 25.7329H24.5423ZM131.965 20.3573C128.155 20.3573 126.901 19.1185 126.901 15.3556C126.901 11.5927 128.155 10.3072 131.965 10.3072C135.776 10.3072 137.03 11.5927 137.03 15.3556C137.03 19.1185 135.776 20.3573 131.965 20.3573ZM107.541 20.3573C103.731 20.3573 102.477 19.1185 102.477 15.3556C102.477 11.5927 103.731 10.3072 107.541 10.3072C111.352 10.3072 112.606 11.5927 112.606 15.3556C112.606 19.1185 111.352 20.3573 107.541 20.3573ZM83.7563 20.3573C79.946 20.3573 78.6917 19.1185 78.6917 15.3556C78.6917 11.5927 79.946 10.3072 83.7563 10.3072C87.5667 10.3072 88.821 11.5927 88.821 15.3556C88.821 19.1185 87.5667 20.3573 83.7563 20.3573ZM3.10033 0L0 24.4708L5.041 25.0785L8.094 0.607681L3.10033 0ZM137.243 22.7412V24.5175H142V6.19366H137.243V7.96995H136.557C135.799 6.96494 133.882 5.65609 131.303 5.65609C125.646 5.65609 121.765 9.90985 121.765 15.3556C121.765 20.8013 125.646 25.0317 131.303 25.0317C133.882 25.0317 135.799 23.7229 136.557 22.7179L137.243 22.7412ZM83.7563 5.65609C77.461 5.65609 73.556 9.90985 73.556 15.3556C73.556 20.8013 77.461 25.0317 83.7563 25.0317C90.0517 25.0317 93.9567 20.8013 93.9567 15.3556C93.9567 9.90985 90.0517 5.65609 83.7563 5.65609ZM112.89 22.7412V24.5175H117.647V0.210349H112.606V7.94658H111.92C111.162 6.94157 109.458 5.63272 106.879 5.63272C101.222 5.63272 97.341 9.88648 97.341 15.3322C97.341 20.778 101.222 25.0084 106.879 25.0084C109.458 25.0084 111.47 23.6995 112.204 22.6945C112.204 22.7412 112.89 22.7412 112.89 22.7412Z" fill="#050200"/>
</svg>
