<svg width="114" height="24" viewBox="0 0 114 24" fill="none" xmlns="http://www.w3.org/2000/svg">
<path d="M13.7022 0.060521C5.8391 -0.689416 -0.716591 5.63474 0.0630905 13.2257C0.638569 18.8409 5.34583 23.3837 11.1642 23.9391C19.0274 24.6916 25.583 18.3649 24.8034 10.7765C24.2279 5.16128 19.5207 0.618464 13.7022 0.0630686V0.060521ZM13.2964 18.3469C8.96312 18.8793 5.3034 15.3474 5.85501 11.1654C6.23159 8.31439 8.61571 6.01353 11.5674 5.65268C15.8981 5.12031 19.5605 8.65222 19.0088 12.8342C18.6349 15.6827 16.2481 17.9861 13.2964 18.3469Z" fill="#050200"/>
<path d="M31.4757 0.536847C29.6777 0.536847 28.2615 2.116 28.6355 3.91517C28.9086 5.23579 30.1922 6.13675 31.5845 6.13675H39.6809L27.0787 22.1812C26.6651 22.7084 27.0548 23.4634 27.7391 23.4634H47.5069C48.9019 23.4634 50.1828 22.5626 50.4559 21.2419C50.8299 19.4427 49.4137 17.8636 47.6156 17.8636H37.7503L50.3419 1.83188C50.7583 1.29952 50.3658 0.536847 49.6762 0.536847H31.4757Z" fill="#050200"/>
<path d="M110.465 0.599996C109.118 0.87382 108.195 2.08183 108.195 3.41009V12.7338L92.4924 0.712604C91.9462 0.292847 91.1399 0.669089 91.1399 1.34473V20.596C91.1399 21.9244 92.0629 23.1324 93.41 23.4062C95.2877 23.7875 96.9424 22.4158 96.9424 20.6703V11.2672L112.645 23.2885C113.191 23.7082 114 23.332 114 22.6563V3.3359C114 1.59043 112.345 0.21866 110.468 0.599996H110.465Z" fill="#050200"/>
<path d="M69.582 5.60195C76.2226 5.60195 81.1845 8.98027 81.1845 12.0002C81.1845 15.0202 76.2226 18.3985 69.582 18.3985C62.9415 18.3985 57.9796 15.0202 57.9796 12.0002C57.9796 8.98027 62.9415 5.60195 69.582 5.60195ZM69.582 0.00204255C59.9687 0.00204255 52.1772 5.37408 52.1772 11.9976C52.1772 18.6237 59.9687 23.9932 69.582 23.9932C79.1955 23.9932 86.987 18.6212 86.987 11.9976C86.987 5.37153 79.1928 0.00204255 69.582 0.00204255Z" fill="#050200"/>
</svg>
