<svg width="93" height="24" viewBox="0 0 93 24" fill="none" xmlns="http://www.w3.org/2000/svg">
<path d="M21.7787 14.8572L24.9892 0H37.8318C38.7075 0.0952381 40.7506 0.285715 41.9181 1.42857C43.0855 2.57143 43.3774 4.66667 43.3774 5.42857L40.7506 18.8572C40.556 19.4285 40.1668 20.8572 38.9993 22C37.9421 23.0349 36.6644 23.7143 34.6212 24H19.5819L20.3193 20.8572C20.3193 20.6667 20.6148 20 21.4905 19.1428C22.5477 18.108 23.8292 17.7143 24.4093 17.7143H32.8699C33.1618 17.6191 33.9747 17.49 34.6212 16.8572C34.9904 16.4957 35.1076 16 35.2049 15.7143L36.6644 8C36.6644 7.42857 36.6059 7.02857 36.3725 6.57143C36.1389 6.11428 35.594 6 35.2049 6H29.9512L28.7836 12C28.7836 12.2857 28.6086 13.3143 27.9081 14C27.2075 14.6857 26.1568 14.8572 25.8649 14.8572H21.7787Z" fill="#050200"/>
<path d="M75.7793 9.14285L77.527 0H73.4407C73.1488 0 72.4483 0.114286 71.9812 0.571428C71.5143 1.02857 71.2029 1.71428 71.1057 2L66.4356 24H71.3976C71.6893 23.9048 72.3899 23.6 72.8569 23.1428C73.3238 22.6857 73.4407 22.1905 73.4407 22L74.6118 16.8572L77.8224 13.7143C79.1845 16.4761 82.0219 21.8857 82.4888 22.5715C82.9558 23.2572 83.8509 23.8095 84.24 24H90.0775L82.4888 10.2857L93 0H85.2721L75.7793 9.14285Z" fill="#050200"/>
<path d="M64.7205 12.8571L65.476 9.14285H49.2511C48.5186 9.14285 47.9634 9.14285 47.0879 9.71428C46.5448 10.0687 46.2999 10.5714 46.008 11.4286L45.4242 14.8572H61.3793C62.0463 14.8572 62.8103 14.7704 63.5531 14.2857C64.2957 13.8011 64.7205 13.1429 64.7205 12.8571Z" fill="#050200"/>
<path d="M66.7312 3.71428L67.4868 0H51.2617C50.5293 0 49.9741 0 49.0986 0.571428C48.5555 0.925813 48.3106 1.42857 48.0187 2.28572L47.4349 5.71428H63.3899C64.057 5.71428 64.821 5.62748 65.5636 5.14285C66.3062 4.65823 66.7312 4 66.7312 3.71428Z" fill="#050200"/>
<path d="M62.9368 22L63.8124 18H47.5875C46.8551 18 46.1798 18.2857 45.3041 18.8572C44.7612 19.2115 44.2568 19.7143 43.9649 20.5715L43.3811 24H59.5955C60.2627 24 61.0266 23.9132 61.7693 23.4285C62.5119 22.944 62.9368 22.2857 62.9368 22Z" fill="#050200"/>
<path d="M8.9429 0H21.1975L20.9098 2.28572C20.6168 3.71428 20.6137 4.28572 19.7381 5.14285C18.8624 6 18.2787 6 17.4031 6H11.5655C11.079 6 10.2261 5.82857 9.52556 6.28572C8.82505 6.74285 8.45534 7.42857 8.35805 7.71428L6.89868 14.8572C6.80139 15.2381 6.66518 16.1715 6.89868 16.8572C7.13217 17.5428 8.16348 17.7143 8.35805 17.7143H14.4874C14.8766 17.7143 16.0605 17.8285 16.5274 18.2857C16.9945 18.7428 17.4031 19.4285 17.1112 20.2857L16.2387 24H4.56055C2.8093 24 1.46619 22.8572 0.765814 21.7143C-0.284691 20 -0.0114138 17.7143 0.183171 16.5715L2.52164 5.71428C2.52164 5.33333 2.87189 3.82857 4.27289 2C5.67389 0.171428 7.96999 0 8.9429 0Z" fill="#050200"/>
</svg>
